<?xml version="1.0" encoding="UTF-8"?>
<svg xmlns="http://www.w3.org/2000/svg" xmlns:xlink="http://www.w3.org/1999/xlink" width="2836" height="2835" viewBox="0 0 2836 2835">
<path fill-rule="evenodd" fill="rgb(21.99707%, 39.988708%, 21.99707%)" fill-opacity="1" d="M 1 0.351562 L 2835.640625 0.351562 L 2835.640625 2835 L 1 2835 L 1 0.351562 "/>
<path fill-rule="evenodd" fill="rgb(94.921875%, 83.984375%, 27.001953%)" fill-opacity="1" d="M 1382.878906 1550.390625 C 1350.25 1578.859375 1292.828125 1605.949219 1246.460938 1594.699219 C 1212.390625 1586.441406 1174.539062 1522.28125 1170.910156 1487.96875 C 1182.128906 1493.449219 1197.511719 1506.980469 1213.609375 1515.328125 C 1264.410156 1541.691406 1314.410156 1550.308594 1370.378906 1548.230469 C 1373.511719 1548.121094 1373.589844 1547.941406 1376.960938 1548.390625 C 1382.96875 1549.179688 1379.71875 1548.488281 1382.878906 1550.390625 Z M 1575.351562 1123.269531 C 1591.300781 1111.601562 1647.75 1110.890625 1665.160156 1156.980469 C 1672.738281 1177.03125 1671.320312 1195.128906 1665.519531 1216.191406 C 1660.488281 1234.460938 1650.289062 1244.121094 1633.109375 1251.328125 C 1568.21875 1278.539062 1512.761719 1211 1543.78125 1153.851562 C 1559.898438 1124.140625 1566.980469 1129.398438 1575.351562 1123.269531 Z M 1367.191406 1203.511719 C 1384.390625 1246.699219 1436.28125 1264.769531 1479.289062 1249.539062 C 1464.558594 1264.238281 1456.910156 1257.019531 1449.238281 1265.328125 L 1403 1352.839844 C 1385.398438 1382.480469 1349.859375 1433.988281 1314.441406 1442.738281 C 1249.71875 1458.710938 1244.609375 1376.488281 1244.738281 1332.648438 C 1244.828125 1305.859375 1247.539062 1275.101562 1251.058594 1248.480469 C 1262.269531 1163.609375 1250.230469 1212.191406 1246.339844 1175.839844 C 1286.371094 1226.371094 1311.921875 1206.640625 1367.191406 1203.511719 Z M 1371.488281 1131.679688 C 1382.949219 1122.730469 1395.910156 1119.851562 1405.730469 1134.121094 C 1420.101562 1155.011719 1393.339844 1153.910156 1380.128906 1152.671875 C 1371.230469 1143.609375 1371.308594 1145.398438 1371.488281 1131.679688 Z M 1174.75 978.171875 C 1189.179688 972.679688 1223.761719 974.21875 1237.578125 983.828125 C 1299.890625 1027.140625 1260.550781 1100.800781 1223.410156 1109.78125 C 1131.339844 1132.03125 1116.171875 1042.410156 1138.660156 1010.328125 C 1146.289062 999.449219 1163.289062 982.53125 1174.75 978.171875 Z M 1304.859375 514.820312 C 1296.78125 533.320312 1272.199219 564.71875 1260.339844 584.871094 C 1215.300781 661.398438 1188.171875 742.691406 1174.929688 830.96875 C 1193.339844 821.910156 1206.578125 812.121094 1227.929688 809.519531 C 1178.210938 833.511719 1146.519531 852.109375 1119.480469 901.679688 C 1107.308594 923.96875 1054.679688 1021.800781 1054.421875 1039.511719 C 1057.511719 1059.5 1041.371094 1070.171875 1039.050781 1090.191406 C 1063.511719 1090.058594 1078.210938 1089.199219 1098.03125 1103.800781 C 1110.121094 1112.699219 1106.089844 1113.519531 1116.628906 1121.640625 C 1126.550781 1129.28125 1128.898438 1132.019531 1127.109375 1145.539062 C 1129.109375 1180.160156 1143.519531 1192.390625 1122.761719 1231.808594 C 1110.71875 1254.648438 1091.75 1270.699219 1070.53125 1284.511719 C 1077.910156 1314.410156 1118.300781 1387.890625 1116.199219 1429.101562 C 1108.339844 1387.320312 1064.398438 1281.96875 1043.730469 1241.910156 C 1030.371094 1216.03125 1012.328125 1183.640625 995.175781 1159.300781 C 985.496094 1145.558594 946.125 1091.121094 937.449219 1087.890625 C 924.304688 1088.78125 929.40625 1088.121094 920.328125 1077.648438 C 892.140625 1045.140625 903.925781 1055.398438 888.089844 1057.210938 C 874.3125 1058.769531 874.128906 1041.789062 856.105469 1045.949219 C 847.320312 1047.96875 851.929688 1050.710938 840.824219 1052 C 831.054688 1053.128906 830.925781 1050.5 821.46875 1050.03125 C 815.417969 1055.679688 814.429688 1060.328125 806.824219 1063.949219 C 795.46875 1069.351562 800.894531 1063.058594 785.910156 1064.730469 L 780.789062 1085.101562 L 762.808594 1089.441406 C 763.800781 1129.359375 767.625 1170.230469 768.582031 1209.960938 C 769.035156 1228.769531 769.109375 1248.179688 771.050781 1266.890625 C 772.605469 1281.871094 777.839844 1309.839844 777.046875 1322.660156 C 778.339844 1331.339844 815.640625 1416.328125 822.378906 1429.699219 C 864.898438 1514.039062 889.097656 1545.371094 941.371094 1617.808594 C 955.980469 1638.058594 955.296875 1654.488281 936.550781 1670.890625 C 910.988281 1693.238281 907.703125 1682.550781 880.109375 1678.378906 C 871.039062 1755.46875 842.296875 1831.03125 816.453125 1902.253906 C 793.882812 1964.445312 746.246094 2061.347656 770.648438 2126.574219 L 780.664062 2132.246094 C 828.402344 2183.441406 923.0625 2171.644531 986.402344 2171.171875 C 1072.308594 2170.535156 1262.03125 2170.617188 1346.621094 2183.875 C 1414.300781 2194.484375 1505.820312 2211.539062 1571.988281 2192.019531 C 1588.839844 2187.046875 1598.511719 2180.824219 1612.5 2171.007812 C 1633.449219 2156.304688 1627.648438 2143.03125 1625.710938 2119.183594 C 1625.851562 2105.523438 1609.519531 2045.464844 1606.058594 2024.75 C 1595.078125 1958.96875 1582.050781 1892.632812 1577.421875 1826.789062 C 1574.800781 1789.578125 1583.101562 1752.328125 1582.039062 1718.269531 C 1582.089844 1707.558594 1583.519531 1707.5 1592.101562 1701.121094 C 1592.109375 1719.808594 1585.441406 1726.738281 1596.820312 1738.179688 C 1640.75 1782.300781 1740.929688 1821.050781 1798.75 1824.96875 C 1850.210938 1820.449219 1835.011719 1828.378906 1862.980469 1832.03125 L 1871.46875 1809.570312 L 1890.980469 1804.429688 C 1897.261719 1780.058594 1886.351562 1782.609375 1910.738281 1770.890625 C 1911.761719 1758.429688 1909.871094 1762.109375 1906.679688 1751.730469 C 1912.988281 1743.949219 1917.308594 1742.890625 1917.539062 1731.609375 C 1908.898438 1724.039062 1905.769531 1729.53125 1894.761719 1717.449219 C 1898.019531 1708.988281 1902.328125 1710.21875 1905.359375 1698.308594 C 1893.121094 1688.761719 1875.53125 1687.351562 1878.601562 1666.851562 C 1872.140625 1643.050781 1793.078125 1574.679688 1769.53125 1557.199219 C 1739.550781 1534.960938 1667.730469 1484.808594 1633.679688 1474.558594 C 1589.550781 1503.480469 1485.558594 1542.839844 1433.269531 1535.699219 C 1461.390625 1525.941406 1584.808594 1509.410156 1617.039062 1477.140625 C 1603.699219 1475.519531 1582.328125 1476.421875 1571.121094 1473.621094 C 1558.808594 1470.550781 1551.710938 1461.449219 1541.199219 1457.359375 C 1519.300781 1452.578125 1514.429688 1422.898438 1513.128906 1402.539062 C 1511.820312 1381.980469 1515.691406 1351.851562 1529.019531 1336.710938 C 1549.429688 1313.539062 1569.328125 1290.109375 1604.070312 1289 C 1621.078125 1288.460938 1622.378906 1284 1637.609375 1283.890625 L 1639.140625 1291.199219 C 1656.558594 1289.988281 1662.78125 1299.53125 1680.078125 1301.011719 C 1680.800781 1313.621094 1682.378906 1311.488281 1689.808594 1318.378906 C 1694.429688 1310.289062 1698.300781 1284.070312 1700.601562 1268.929688 C 1702.351562 1257.441406 1704.660156 1251.929688 1707.308594 1241.320312 C 1713.859375 1215.089844 1708.988281 1222.328125 1719.53125 1220.089844 C 1726.46875 1206.730469 1743.390625 1162.550781 1748.070312 1145.289062 C 1759.160156 1104.351562 1750.191406 1091.019531 1746.441406 1054.019531 C 1754.75 1066.960938 1759.070312 1095.160156 1758.890625 1113.148438 C 1766.921875 1120.191406 1818.210938 1234.359375 1829.109375 1254.878906 C 1837.109375 1269.960938 1849.449219 1282.171875 1857.269531 1299.699219 C 1864.511719 1317.238281 2045.941406 1368.320312 2087.609375 1330.101562 C 2076.488281 1278.738281 1977.160156 1159.691406 1937.429688 1124.121094 C 1903.601562 1093.828125 1876.359375 1071.050781 1838.558594 1044.339844 C 1820.390625 1031.5 1745.730469 984.839844 1727.75 981.871094 L 1732.878906 1005.140625 C 1678.640625 893.628906 1555.769531 825.710938 1438.328125 799.488281 C 1356.761719 781.28125 1347.871094 794.171875 1285 793.058594 L 1296.25 788.480469 C 1307.070312 775.28125 1337.480469 757.230469 1353.28125 742.140625 C 1370.21875 725.949219 1387.101562 709.609375 1402.378906 693.539062 L 1496.609375 587.390625 C 1504.75 579.058594 1558.980469 461.898438 1562.539062 447.679688 L 1558.730469 445.339844 C 1558.039062 444.980469 1555.589844 443.730469 1554.75 443.378906 C 1498.570312 419.640625 1403.378906 453.089844 1354.628906 481.050781 C 1345.261719 486.429688 1307.300781 514.171875 1304.859375 514.820312 "/>
<path fill-rule="evenodd" fill="rgb(80.076599%, 58.984375%, 16.992188%)" fill-opacity="1" d="M 780.664062 2132.246094 C 775.15625 2145.996094 784.632812 2142.183594 794.460938 2166.121094 C 799.277344 2177.851562 809.621094 2184.640625 816.335938 2192.199219 C 849.765625 2229.847656 867.84375 2216.714844 879.363281 2233.851562 C 865.617188 2256.238281 850.644531 2229.960938 836.519531 2235.605469 C 828.171875 2238.941406 805.546875 2253.265625 799.265625 2258.082031 C 809.5625 2267.582031 826.734375 2267.1875 844.355469 2284.226562 C 856.640625 2296.105469 865.355469 2314.015625 867.464844 2331.644531 C 896.835938 2325.628906 1019.011719 2296.53125 1025.761719 2270.527344 C 1017.410156 2266.890625 1009.011719 2266.804688 999.554688 2266.128906 C 995.488281 2265.839844 987.828125 2265.496094 984.132812 2264.503906 L 974.085938 2258.976562 C 994.835938 2258.640625 1015.75 2262.589844 1036.640625 2262.285156 C 1056.878906 2261.992188 1077.679688 2261.464844 1097.941406 2260.90625 C 1152.859375 2259.386719 1427.539062 2278.773438 1449.808594 2290.515625 L 1373.78125 2287.167969 C 1380.679688 2321.371094 1500.628906 2371.429688 1533.898438 2379.355469 C 1535.519531 2351.738281 1588.699219 2324.714844 1614.230469 2327.3125 L 1618.699219 2326.648438 L 1605.570312 2315.671875 C 1588.058594 2319.242188 1584.210938 2304.261719 1560.328125 2291.539062 C 1526.878906 2273.730469 1544.691406 2296.035156 1517.421875 2284.207031 C 1515.421875 2260.710938 1534.039062 2272.785156 1563.738281 2247.027344 C 1570.269531 2241.367188 1579.761719 2234.050781 1585.761719 2227.867188 C 1597.730469 2215.546875 1595.640625 2210.058594 1613.078125 2207.894531 C 1615.128906 2197.78125 1624.429688 2183.90625 1627.359375 2168.460938 C 1629.890625 2155.132812 1630.429688 2131.308594 1625.710938 2119.183594 C 1627.648438 2143.03125 1633.449219 2156.304688 1612.5 2171.007812 C 1598.511719 2180.824219 1588.839844 2187.046875 1571.988281 2192.019531 C 1505.820312 2211.539062 1414.300781 2194.484375 1346.621094 2183.875 C 1262.03125 2170.617188 1072.308594 2170.535156 986.402344 2171.171875 C 923.0625 2171.644531 828.402344 2183.441406 780.664062 2132.246094 "/>
<path fill-rule="evenodd" fill="rgb(94.921875%, 83.984375%, 27.001953%)" fill-opacity="1" d="M 1669.519531 1448.339844 L 1951.558594 1671.320312 C 1958.808594 1666.269531 2021.371094 1554.578125 2027.5 1539.21875 L 2083.699219 1441.511719 C 2049.890625 1422.460938 1993.960938 1415.921875 1926.261719 1366.878906 C 1906.308594 1352.441406 1901.589844 1357.179688 1876.820312 1357.199219 C 1824.929688 1357.238281 1751.871094 1359.03125 1704.511719 1357.058594 C 1703.289062 1375.929688 1701.039062 1391.171875 1693.109375 1408.410156 C 1686.28125 1423.28125 1673.628906 1437.808594 1669.519531 1448.339844 "/>
<path fill-rule="evenodd" fill="rgb(1.000977%, 1.000977%, 1.997375%)" fill-opacity="1" d="M 1745.628906 1173.828125 L 1817.289062 1269.429688 C 1840.199219 1298.199219 1874.851562 1326.398438 1903.640625 1351.179688 L 1704.609375 1352.019531 C 1703.199219 1312.078125 1721.21875 1200.988281 1745.628906 1173.828125 Z M 1303.070312 514.980469 L 1304.859375 514.820312 C 1307.300781 514.171875 1345.261719 486.429688 1354.628906 481.050781 C 1403.378906 453.089844 1498.570312 419.640625 1554.75 443.378906 C 1555.589844 443.730469 1558.039062 444.980469 1558.730469 445.339844 L 1562.539062 447.679688 C 1558.980469 461.898438 1504.75 579.058594 1496.609375 587.390625 C 1488.011719 616.398438 1437.980469 683.101562 1418.078125 709.101562 C 1403.738281 727.828125 1387.390625 746.578125 1371.191406 762.808594 C 1342.609375 791.460938 1339.421875 787.058594 1296.25 788.480469 L 1285 793.058594 C 1347.871094 794.171875 1356.761719 781.28125 1438.328125 799.488281 C 1555.769531 825.710938 1678.640625 893.628906 1732.878906 1005.140625 L 1727.75 981.871094 C 1745.730469 984.839844 1820.390625 1031.5 1838.558594 1044.339844 C 1876.359375 1071.050781 1903.601562 1093.828125 1937.429688 1124.121094 C 1977.160156 1159.691406 2076.488281 1278.738281 2087.609375 1330.101562 C 2045.941406 1368.320312 1864.511719 1317.238281 1857.269531 1299.699219 C 1833.46875 1289.71875 1770.039062 1203.679688 1752.96875 1174.421875 C 1742.929688 1157.210938 1754.121094 1158.019531 1758.890625 1113.148438 C 1759.070312 1095.160156 1754.75 1066.960938 1746.441406 1054.019531 C 1750.191406 1091.019531 1759.160156 1104.351562 1748.070312 1145.289062 C 1743.390625 1162.550781 1726.46875 1206.730469 1719.53125 1220.089844 C 1714.800781 1241.160156 1708.660156 1259.121094 1705.148438 1281.101562 C 1701.300781 1305.199219 1701.570312 1324.71875 1699.871094 1348.25 L 1699.789062 1356.390625 L 1704.511719 1357.058594 C 1751.871094 1359.03125 1824.929688 1357.238281 1876.820312 1357.199219 C 1901.589844 1357.179688 1906.308594 1352.441406 1926.261719 1366.878906 C 1993.960938 1415.921875 2049.890625 1422.460938 2083.699219 1441.511719 L 2027.5 1539.21875 C 2034.761719 1539.21875 2033.511719 1537.328125 2032.109375 1544.210938 L 2089.921875 1442.441406 L 2136.460938 1452.078125 C 2128.121094 1379.558594 2063.550781 1264.011719 2019.109375 1207.128906 C 1966.640625 1139.949219 1903.679688 1080.578125 1832.179688 1033.898438 C 1814.121094 1022.121094 1724.410156 974.320312 1718.878906 968.699219 C 1706.960938 956.570312 1693.089844 934.261719 1678.691406 919.511719 C 1603.300781 842.289062 1462.808594 783.449219 1357.210938 784.941406 C 1363.578125 775.269531 1416.199219 723.679688 1443.300781 684.171875 C 1469.648438 645.761719 1493.980469 608.96875 1515.371094 566.429688 C 1543.96875 509.53125 1620.199219 341.789062 1602.988281 283.128906 L 1584.851562 283.128906 C 1572.878906 290.890625 1554.671875 297.101562 1540.570312 304.148438 C 1467.980469 340.480469 1381.628906 416.160156 1329.28125 478.101562 C 1321.03125 487.859375 1304.890625 503.179688 1303.070312 514.980469 "/>
<path fill-rule="evenodd" fill="rgb(19.993591%, 12.010193%, 4.998779%)" fill-opacity="1" d="M 1583.621094 1812.601562 C 1600.300781 1816.46875 1616.761719 1824.351562 1635.160156 1828.269531 C 1649.929688 1831.410156 1678.25 1834.488281 1690 1840.667969 L 1690.398438 1907.664062 L 1603.261719 1969.125 C 1596.871094 1960.558594 1597.238281 1945.367188 1595.78125 1934.964844 C 1593.960938 1921.953125 1591.519531 1909.101562 1589.96875 1896.074219 C 1586.890625 1870.34375 1583.960938 1838.339844 1583.621094 1812.601562 Z M 1666.339844 1434.859375 Z M 1541.199219 1457.359375 C 1551.710938 1461.449219 1558.808594 1470.550781 1571.121094 1473.621094 C 1582.328125 1476.421875 1603.699219 1475.519531 1617.039062 1477.140625 C 1584.808594 1509.410156 1461.390625 1525.941406 1433.269531 1535.699219 C 1485.558594 1542.839844 1589.550781 1503.480469 1633.679688 1474.558594 C 1667.730469 1484.808594 1739.550781 1534.960938 1769.53125 1557.199219 C 1793.078125 1574.679688 1872.140625 1643.050781 1878.601562 1666.851562 C 1888.691406 1674.191406 1886.570312 1678.550781 1894.308594 1683.761719 C 1900.140625 1687.679688 1908.578125 1688.789062 1916.75 1693.929688 C 1913.738281 1712.179688 1912.039062 1704.011719 1901.308594 1715.058594 C 1909.390625 1718.878906 1903.730469 1716.058594 1915.121094 1715.808594 L 1927.28125 1742.28125 L 1915.339844 1751.089844 L 1918.980469 1773.5 L 1899.808594 1785.289062 C 1897.371094 1809.941406 1900.328125 1809.359375 1877.191406 1815.601562 L 1867.910156 1839.890625 C 1842.460938 1839.5625 1859.238281 1828.691406 1807.621094 1830.519531 C 1766.929688 1845.140625 1622.519531 1829.121094 1583.96875 1804.378906 C 1582.859375 1789.730469 1584.648438 1756.570312 1586.019531 1740.160156 C 1586.160156 1738.410156 1586.660156 1730.179688 1586.441406 1728.871094 C 1584.648438 1718.011719 1588.960938 1726.171875 1582.039062 1718.269531 C 1583.101562 1752.328125 1574.800781 1789.578125 1577.421875 1826.789062 C 1582.050781 1892.632812 1595.078125 1958.96875 1606.058594 2024.75 C 1609.519531 2045.464844 1625.851562 2105.523438 1625.710938 2119.183594 C 1630.429688 2131.308594 1629.890625 2155.132812 1627.359375 2168.460938 C 1624.429688 2183.90625 1615.128906 2197.78125 1613.078125 2207.894531 C 1662.039062 2155.710938 1603.949219 2038.820312 1603.128906 1977.101562 L 1696.429688 1910.457031 L 1697.191406 1841.777344 C 1711.328125 1837.105469 1767.949219 1843.472656 1790.410156 1841.191406 C 1802.96875 1839.914062 1819.890625 1834.238281 1831.28125 1835.9375 C 1844.109375 1837.847656 1854.148438 1844.78125 1868.449219 1845.929688 C 1875.261719 1837.867188 1876.820312 1831.671875 1879.488281 1821.148438 C 1904.488281 1811.609375 1900.589844 1820.089844 1906 1788.789062 C 1929.058594 1775.339844 1924.140625 1780.089844 1921.449219 1754.351562 C 1933.988281 1744.160156 1935.921875 1741.949219 1925.519531 1725.050781 C 1910.058594 1699.910156 1927.398438 1716.699219 1920.171875 1691.359375 L 1946.28125 1694.828125 L 2032.109375 1544.210938 C 2033.511719 1537.328125 2034.761719 1539.21875 2027.5 1539.21875 C 2021.371094 1554.578125 1958.808594 1666.269531 1951.558594 1671.320312 L 1944.871094 1688.609375 C 1928.441406 1687.210938 1901.761719 1685.578125 1891.851562 1672.238281 C 1852.648438 1619.460938 1849.578125 1618.488281 1799 1572.390625 C 1779.121094 1554.261719 1746.128906 1534.210938 1722.648438 1517.421875 C 1696.949219 1499.03125 1646.070312 1472.699219 1641.730469 1468.359375 L 1669.519531 1448.339844 C 1673.628906 1437.808594 1686.28125 1423.28125 1693.109375 1408.410156 C 1701.039062 1391.171875 1703.289062 1375.929688 1704.511719 1357.058594 L 1699.789062 1356.390625 L 1699.871094 1348.25 C 1669.789062 1296.949219 1619.269531 1272.320312 1563.199219 1312.058594 C 1540.550781 1328.121094 1527.308594 1345.421875 1520.261719 1375.03125 C 1510.789062 1414.789062 1526.839844 1428.050781 1541.199219 1457.359375 "/>
<path fill-rule="evenodd" fill="rgb(14.988708%, 11.009216%, 4.998779%)" fill-opacity="1" d="M 1649.96875 2418.464844 L 1672.699219 2418.464844 C 1701.53125 2388.289062 1672.578125 2368.796875 1652.140625 2347.308594 C 1638.609375 2333.085938 1606.089844 2305.660156 1586.589844 2298.589844 L 1605.570312 2315.671875 L 1618.699219 2326.648438 C 1631.589844 2334.773438 1685.199219 2380.792969 1678.480469 2397.59375 C 1661.699219 2385.199219 1657.101562 2367.441406 1630.148438 2356.484375 C 1636.21875 2367.675781 1698.878906 2409.195312 1661.910156 2412.882812 C 1647.550781 2391.535156 1642.089844 2383.699219 1609.210938 2369.039062 L 1615.511719 2377.261719 C 1624.941406 2379.578125 1650.699219 2400.609375 1653.960938 2410.089844 C 1639.050781 2416.832031 1552.269531 2388.175781 1533.898438 2379.355469 C 1500.628906 2371.429688 1380.679688 2321.371094 1373.78125 2287.167969 L 1449.808594 2290.515625 C 1427.539062 2278.773438 1152.859375 2259.386719 1097.941406 2260.90625 C 1077.679688 2261.464844 1056.878906 2261.992188 1036.640625 2262.285156 C 1015.75 2262.589844 994.835938 2258.640625 974.085938 2258.976562 L 984.132812 2264.503906 C 987.828125 2265.496094 995.488281 2265.839844 999.554688 2266.128906 C 1009.011719 2266.804688 1017.410156 2266.890625 1025.761719 2270.527344 C 1019.011719 2296.53125 896.835938 2325.628906 867.464844 2331.644531 C 843.492188 2338.46875 751.328125 2353.867188 730.152344 2348.683594 C 735.558594 2330.933594 776.492188 2322.992188 791.367188 2312.355469 L 765.4375 2316.921875 C 758.445312 2323.082031 747.28125 2326.625 738.222656 2332.203125 C 729.148438 2337.789062 723.460938 2348.492188 717.121094 2345.480469 C 715.984375 2344.667969 705.160156 2345.816406 722.921875 2328.117188 C 738.6875 2312.410156 762.703125 2300.066406 782.40625 2287.976562 C 734.742188 2300.664062 724.292969 2327.4375 707.257812 2331.992188 C 703.363281 2315.785156 720.132812 2303.734375 732.066406 2295.378906 C 745.0625 2286.28125 758.757812 2274.699219 772.339844 2266.480469 L 783.648438 2260.898438 C 792.253906 2250.621094 810.429688 2242.574219 823.1875 2235.730469 C 852.777344 2219.859375 839.816406 2233.085938 870.214844 2234.835938 C 856.390625 2222.9375 793.65625 2214.800781 770.648438 2126.574219 C 746.246094 2061.347656 793.882812 1964.445312 816.453125 1902.253906 C 842.296875 1831.03125 871.039062 1755.46875 880.109375 1678.378906 L 884.742188 1629.550781 C 892.363281 1635.101562 888.570312 1639.230469 899.734375 1644.679688 C 895.535156 1629.660156 867.503906 1589.171875 858.40625 1572.308594 C 815.890625 1493.460938 781.753906 1405.390625 770.109375 1316.519531 C 768.925781 1299.429688 765.035156 1281.320312 763.898438 1262.980469 C 762.679688 1243.371094 762.398438 1223.878906 761.128906 1204.269531 L 755.105469 1084.230469 C 774.5625 1073.320312 773.878906 1090.730469 781.851562 1054.78125 C 821.382812 1057.371094 794.722656 1062.058594 821.71875 1038.359375 C 831.257812 1039.230469 831.976562 1041.980469 840.667969 1046.101562 C 852.671875 1040.671875 852.820312 1035.601562 866.574219 1031.949219 L 882.496094 1051.601562 L 902.242188 1045.121094 C 909.082031 1051.671875 931.015625 1079.410156 937.449219 1087.890625 C 946.125 1091.121094 985.496094 1145.558594 995.175781 1159.300781 C 1012.328125 1183.640625 1030.371094 1216.03125 1043.730469 1241.910156 C 1064.398438 1281.96875 1108.339844 1387.320312 1116.199219 1429.101562 C 1118.300781 1387.890625 1077.910156 1314.410156 1070.53125 1284.511719 C 1091.75 1270.699219 1110.71875 1254.648438 1122.761719 1231.808594 C 1143.519531 1192.390625 1129.109375 1180.160156 1127.109375 1145.539062 C 1113.148438 1133.210938 1108.410156 1117.601562 1087.871094 1105.648438 C 1064.351562 1091.980469 1051.210938 1097.75 1027.761719 1100.730469 C 1040.511719 1107.179688 1063.328125 1096.730469 1089.058594 1112.988281 C 1156.5 1155.601562 1124.558594 1251.550781 1085.378906 1265.921875 C 1081.46875 1272.589844 1075.238281 1275.71875 1068.140625 1278.558594 C 1059.148438 1262.378906 1050.699219 1243.980469 1041.859375 1227.160156 C 1035.238281 1214.570312 1015.898438 1188.640625 1015.320312 1177.199219 C 1004.679688 1169.679688 991.742188 1150.390625 988.296875 1137.261719 C 992.835938 1129.058594 997.664062 1122.78125 1004.878906 1116.71875 C 1010.519531 1111.988281 1011.78125 1112.179688 1017.269531 1108.960938 C 1022.488281 1105.878906 1030.078125 1107.261719 1021.820312 1103.121094 L 1017.96875 1102.140625 C 1025.96875 1089.460938 1030.648438 1089 1037.800781 1071.570312 C 1042.28125 1060.640625 1046.570312 1046.828125 1054.421875 1039.511719 C 1054.679688 1021.800781 1107.308594 923.96875 1119.480469 901.679688 C 1146.519531 852.109375 1178.210938 833.511719 1227.929688 809.519531 C 1206.578125 812.121094 1193.339844 821.910156 1174.929688 830.96875 C 1188.171875 742.691406 1215.300781 661.398438 1260.339844 584.871094 C 1272.199219 564.71875 1296.78125 533.320312 1304.859375 514.820312 L 1303.070312 514.980469 C 1269.289062 533.320312 1200.328125 688.398438 1185.351562 747.378906 C 1180.691406 765.71875 1171.210938 832.269531 1162.410156 841.460938 C 1132.300781 872.910156 1138.199219 855.828125 1110.429688 906.949219 C 1070.101562 981.171875 1065.761719 1005.089844 1035.589844 1066.378906 C 1023 1091.960938 1001.441406 1110.621094 983.613281 1132.128906 L 916.648438 1053.570312 C 906.921875 1036.699219 902.730469 1037.410156 885.941406 1045.058594 L 867.214844 1026.621094 C 851.019531 1030.269531 853.046875 1034.328125 841.257812 1039.828125 C 833.203125 1036.359375 828.160156 1032.199219 818.53125 1031.300781 C 810.605469 1038.519531 807.75 1045.109375 802.144531 1051.578125 L 779.527344 1049.660156 L 770.875 1073.011719 C 739.460938 1080.941406 750.785156 1066.378906 752.664062 1164.671875 C 754.199219 1244.851562 761.929688 1332.96875 783.9375 1409.390625 C 800.335938 1466.339844 836.007812 1549.871094 868.507812 1601.238281 C 907.8125 1663.359375 812.78125 1897.601562 789.394531 1961.90625 C 763.820312 2032.234375 735.089844 2099.539062 786.855469 2176.898438 C 803.546875 2201.835938 813.667969 2204.648438 832.84375 2223.074219 C 821.429688 2234.753906 768.324219 2259.511719 749.199219 2273.28125 C 732.945312 2284.988281 726.734375 2290.652344 712.953125 2304.121094 C 707.429688 2309.519531 700.460938 2314.683594 700.1875 2324.054688 C 700.117188 2326.421875 709.074219 2347.214844 710.070312 2348.832031 C 733.855469 2372.511719 932.914062 2322.1875 970.382812 2310.582031 C 993.855469 2303.3125 1025.109375 2292.390625 1033.878906 2268.621094 C 1093.910156 2269.816406 1139.328125 2264.390625 1201.730469 2270.476562 C 1256.398438 2275.808594 1311.308594 2281.464844 1366.019531 2286.226562 C 1376.480469 2303.066406 1369.96875 2310.671875 1418.441406 2335.394531 C 1442.148438 2347.492188 1465.929688 2359.109375 1490.761719 2369.230469 C 1540.039062 2389.324219 1559.019531 2394.933594 1607.398438 2408.808594 C 1619.238281 2412.203125 1641.761719 2415.035156 1649.96875 2418.464844 "/>
<path fill-rule="evenodd" fill="rgb(81.054688%, 33.006287%, 36.009216%)" fill-opacity="1" d="M 1251.261719 1306.898438 C 1251.171875 1345.441406 1242.160156 1430.179688 1293.898438 1438.269531 C 1331.160156 1444.101562 1374.789062 1392.570312 1388.558594 1363.851562 C 1373.609375 1311.121094 1300 1300.371094 1251.261719 1306.898438 "/>
<path fill-rule="evenodd" fill="rgb(80.076599%, 58.984375%, 16.992188%)" fill-opacity="1" d="M 880.109375 1678.378906 C 907.703125 1682.550781 910.988281 1693.238281 936.550781 1670.890625 C 955.296875 1654.488281 955.980469 1638.058594 941.371094 1617.808594 C 889.097656 1545.371094 864.898438 1514.039062 822.378906 1429.699219 C 815.640625 1416.328125 778.339844 1331.339844 777.046875 1322.660156 L 770.109375 1316.519531 C 781.753906 1405.390625 815.890625 1493.460938 858.40625 1572.308594 C 867.503906 1589.171875 895.535156 1629.660156 899.734375 1644.679688 C 888.570312 1639.230469 892.363281 1635.101562 884.742188 1629.550781 L 880.109375 1678.378906 "/>
<path fill-rule="evenodd" fill="rgb(83.984375%, 19.993591%, 9.008789%)" fill-opacity="1" d="M 1015.320312 1177.199219 C 1015.898438 1188.640625 1035.238281 1214.570312 1041.859375 1227.160156 C 1050.699219 1243.980469 1059.148438 1262.378906 1068.140625 1278.558594 C 1075.238281 1275.71875 1081.46875 1272.589844 1085.378906 1265.921875 C 1088.128906 1250.550781 1114.449219 1234.519531 1120.839844 1199.789062 C 1127.148438 1165.5 1113.441406 1153.71875 1106.75 1142.929688 C 1094.929688 1123.859375 1093.269531 1117.328125 1064.929688 1111.730469 C 1048.75 1108.53125 1036.828125 1104.488281 1021.179688 1113.609375 C 1010.769531 1119.679688 998.53125 1130.230469 999.714844 1142.828125 C 1001.300781 1159.71875 1014.910156 1152.730469 1015.320312 1177.199219 "/>
<path fill-rule="evenodd" fill="rgb(78.90625%, 58.006287%, 18.992615%)" fill-opacity="1" d="M 1583.621094 1812.601562 C 1583.960938 1838.339844 1586.890625 1870.34375 1589.96875 1896.074219 C 1591.519531 1909.101562 1593.960938 1921.953125 1595.78125 1934.964844 C 1597.238281 1945.367188 1596.871094 1960.558594 1603.261719 1969.125 L 1690.398438 1907.664062 L 1690 1840.667969 C 1678.25 1834.488281 1649.929688 1831.410156 1635.160156 1828.269531 C 1616.761719 1824.351562 1600.300781 1816.46875 1583.621094 1812.601562 "/>
<path fill-rule="evenodd" fill="rgb(1.000977%, 1.000977%, 1.997375%)" fill-opacity="1" d="M 1213.761719 995.808594 C 1251.679688 984.859375 1260.941406 1036.640625 1231.300781 1044.859375 C 1194.171875 1055.160156 1184.21875 1004.339844 1213.761719 995.808594 Z M 1178.921875 985.75 C 1110.351562 1008.75 1127.039062 1128.46875 1220.179688 1103.339844 C 1291.371094 1084.140625 1267.738281 955.960938 1178.921875 985.75 "/>
<path fill-rule="evenodd" fill="rgb(1.000977%, 1.000977%, 1.997375%)" fill-opacity="1" d="M 1594.691406 1130.410156 C 1632.5 1121.960938 1637.53125 1176.03125 1608.058594 1184.480469 C 1573.078125 1194.5 1556.808594 1138.859375 1594.691406 1130.410156 Z M 1596.488281 1124.398438 C 1512.949219 1140.671875 1534.691406 1262.359375 1614.53125 1249.710938 C 1693.378906 1237.210938 1669.980469 1110.089844 1596.488281 1124.398438 "/>
<path fill-rule="evenodd" fill="rgb(78.90625%, 59.959412%, 15.989685%)" fill-opacity="1" d="M 1382.878906 1550.390625 C 1379.71875 1548.488281 1382.96875 1549.179688 1376.960938 1548.390625 C 1373.589844 1547.941406 1373.511719 1548.121094 1370.378906 1548.230469 C 1314.410156 1550.308594 1264.410156 1541.691406 1213.609375 1515.328125 C 1197.511719 1506.980469 1182.128906 1493.449219 1170.910156 1487.96875 C 1174.539062 1522.28125 1212.390625 1586.441406 1246.460938 1594.699219 C 1292.828125 1605.949219 1350.25 1578.859375 1382.878906 1550.390625 "/>
<path fill-rule="evenodd" fill="rgb(80.076599%, 59.959412%, 18.992615%)" fill-opacity="1" d="M 1951.558594 1671.320312 L 1669.519531 1448.339844 L 1641.730469 1468.359375 C 1646.070312 1472.699219 1696.949219 1499.03125 1722.648438 1517.421875 C 1746.128906 1534.210938 1779.121094 1554.261719 1799 1572.390625 C 1849.578125 1618.488281 1852.648438 1619.460938 1891.851562 1672.238281 C 1901.761719 1685.578125 1928.441406 1687.210938 1944.871094 1688.609375 L 1951.558594 1671.320312 "/>
<path fill-rule="evenodd" fill="rgb(80.076599%, 59.959412%, 18.992615%)" fill-opacity="1" d="M 1582.039062 1718.269531 C 1588.960938 1726.171875 1584.648438 1718.011719 1586.441406 1728.871094 C 1586.660156 1730.179688 1586.160156 1738.410156 1586.019531 1740.160156 C 1584.648438 1756.570312 1582.859375 1789.730469 1583.96875 1804.378906 C 1622.519531 1829.121094 1766.929688 1845.140625 1807.621094 1830.519531 L 1798.75 1824.96875 C 1740.929688 1821.050781 1640.75 1782.300781 1596.820312 1738.179688 C 1585.441406 1726.738281 1592.109375 1719.808594 1592.101562 1701.121094 C 1583.519531 1707.5 1582.089844 1707.558594 1582.039062 1718.269531 "/>
<path fill-rule="evenodd" fill="rgb(55.076599%, 10.009766%, 15.989685%)" fill-opacity="1" d="M 1251.261719 1306.898438 C 1300 1300.371094 1373.609375 1311.121094 1388.558594 1363.851562 C 1405.949219 1337.210938 1431.980469 1314.039062 1373.28125 1277.96875 C 1337.359375 1255.898438 1293.988281 1248.378906 1255.011719 1269.390625 L 1251.261719 1306.898438 "/>
<path fill-rule="evenodd" fill="rgb(35.009766%, 4.998779%, 4.998779%)" fill-opacity="1" d="M 1266.070312 1210.089844 C 1259.921875 1219.539062 1256.140625 1242.78125 1259.429688 1255 C 1277.078125 1262.898438 1318.058594 1229.308594 1383.300781 1276.488281 C 1401.800781 1289.859375 1397.140625 1288.800781 1410.410156 1302.660156 C 1422.140625 1298.460938 1425.851562 1300.5 1435.621094 1276.488281 C 1440.898438 1263.511719 1440.109375 1268.46875 1436.820312 1267.578125 C 1435.03125 1259.960938 1443.570312 1265.199219 1415.589844 1255.910156 C 1406.898438 1253.019531 1398.699219 1249.210938 1392.398438 1244.71875 C 1376.449219 1233.359375 1371.710938 1225.351562 1360.441406 1211.429688 C 1340.171875 1213.429688 1331.671875 1216.109375 1310.109375 1215.648438 C 1300.039062 1215.441406 1267.910156 1209.808594 1266.070312 1210.089844 "/>
<path fill-rule="evenodd" fill="rgb(91.992188%, 83.006287%, 23.997498%)" fill-opacity="1" d="M 772.339844 2266.480469 C 779.109375 2272.492188 780.714844 2270.023438 766.949219 2278.773438 C 775.335938 2283.121094 817.378906 2280.355469 750.066406 2315.1875 L 765.4375 2316.921875 L 791.367188 2312.355469 C 776.492188 2322.992188 735.558594 2330.933594 730.152344 2348.683594 C 751.328125 2353.867188 843.492188 2338.46875 867.464844 2331.644531 C 865.355469 2314.015625 856.640625 2296.105469 844.355469 2284.226562 C 826.734375 2267.1875 809.5625 2267.582031 799.265625 2258.082031 L 783.648438 2260.898438 L 772.339844 2266.480469 "/>
<path fill-rule="evenodd" fill="rgb(18.992615%, 3.999329%, 3.999329%)" fill-opacity="1" d="M 1388.558594 1363.851562 C 1374.789062 1392.570312 1331.160156 1444.101562 1293.898438 1438.269531 C 1242.160156 1430.179688 1251.171875 1345.441406 1251.261719 1306.898438 L 1255.011719 1269.390625 C 1293.988281 1248.378906 1337.359375 1255.898438 1373.28125 1277.96875 C 1431.980469 1314.039062 1405.949219 1337.210938 1388.558594 1363.851562 Z M 1266.070312 1210.089844 C 1267.910156 1209.808594 1300.039062 1215.441406 1310.109375 1215.648438 C 1331.671875 1216.109375 1340.171875 1213.429688 1360.441406 1211.429688 C 1371.710938 1225.351562 1376.449219 1233.359375 1392.398438 1244.71875 C 1398.699219 1249.210938 1406.898438 1253.019531 1415.589844 1255.910156 C 1443.570312 1265.199219 1435.03125 1259.960938 1436.820312 1267.578125 C 1440.109375 1268.46875 1440.898438 1263.511719 1435.621094 1276.488281 C 1425.851562 1300.5 1422.140625 1298.460938 1410.410156 1302.660156 C 1397.140625 1288.800781 1401.800781 1289.859375 1383.300781 1276.488281 C 1318.058594 1229.308594 1277.078125 1262.898438 1259.429688 1255 C 1256.140625 1242.78125 1259.921875 1219.539062 1266.070312 1210.089844 Z M 1479.289062 1249.539062 C 1436.28125 1264.769531 1384.390625 1246.699219 1367.191406 1203.511719 C 1311.921875 1206.640625 1286.371094 1226.371094 1246.339844 1175.839844 C 1250.230469 1212.191406 1262.269531 1163.609375 1251.058594 1248.480469 C 1247.539062 1275.101562 1244.828125 1305.859375 1244.738281 1332.648438 C 1244.609375 1376.488281 1249.71875 1458.710938 1314.441406 1442.738281 C 1349.859375 1433.988281 1385.398438 1382.480469 1403 1352.839844 L 1449.238281 1265.328125 C 1456.910156 1257.019531 1464.558594 1264.238281 1479.289062 1249.539062 "/>
<path fill-rule="evenodd" fill="rgb(80.076599%, 59.959412%, 18.992615%)" fill-opacity="1" d="M 1296.25 788.480469 C 1339.421875 787.058594 1342.609375 791.460938 1371.191406 762.808594 C 1387.390625 746.578125 1403.738281 727.828125 1418.078125 709.101562 C 1437.980469 683.101562 1488.011719 616.398438 1496.609375 587.390625 L 1402.378906 693.539062 C 1387.101562 709.609375 1370.21875 725.949219 1353.28125 742.140625 C 1337.480469 757.230469 1307.070312 775.28125 1296.25 788.480469 "/>
<path fill-rule="evenodd" fill="rgb(91.992188%, 83.006287%, 23.997498%)" fill-opacity="1" d="M 1533.898438 2379.355469 C 1552.269531 2388.175781 1639.050781 2416.832031 1653.960938 2410.089844 C 1650.699219 2400.609375 1624.941406 2379.578125 1615.511719 2377.261719 L 1604.730469 2377.640625 C 1608.640625 2361.148438 1610.5 2365.910156 1611.230469 2365.378906 C 1612.671875 2364.335938 1611.449219 2366.554688 1617 2362.550781 C 1617.480469 2362.203125 1618.210938 2361.660156 1618.628906 2361.300781 C 1619.011719 2360.96875 1619.570312 2360.269531 1619.890625 2359.933594 C 1639.121094 2339.613281 1626.050781 2365.414062 1631.378906 2345.613281 C 1622.628906 2336.089844 1621.019531 2340.492188 1614.230469 2327.3125 C 1588.699219 2324.714844 1535.519531 2351.738281 1533.898438 2379.355469 "/>
<path fill-rule="evenodd" fill="rgb(80.076599%, 59.959412%, 18.992615%)" fill-opacity="1" d="M 1857.269531 1299.699219 C 1849.449219 1282.171875 1837.109375 1269.960938 1829.109375 1254.878906 C 1818.210938 1234.359375 1766.921875 1120.191406 1758.890625 1113.148438 C 1754.121094 1158.019531 1742.929688 1157.210938 1752.96875 1174.421875 C 1770.039062 1203.679688 1833.46875 1289.71875 1857.269531 1299.699219 "/>
<path fill-rule="evenodd" fill="rgb(89.0625%, 83.006287%, 33.006287%)" fill-opacity="1" d="M 770.109375 1316.519531 L 777.046875 1322.660156 C 777.839844 1309.839844 772.605469 1281.871094 771.050781 1266.890625 C 769.109375 1248.179688 769.035156 1228.769531 768.582031 1209.960938 C 767.625 1170.230469 763.800781 1129.359375 762.808594 1089.441406 L 780.789062 1085.101562 L 785.910156 1064.730469 C 800.894531 1063.058594 795.46875 1069.351562 806.824219 1063.949219 C 814.429688 1060.328125 815.417969 1055.679688 821.46875 1050.03125 C 830.925781 1050.5 831.054688 1053.128906 840.824219 1052 C 851.929688 1050.710938 847.320312 1047.96875 856.105469 1045.949219 C 874.128906 1041.789062 874.3125 1058.769531 888.089844 1057.210938 C 903.925781 1055.398438 892.140625 1045.140625 920.328125 1077.648438 C 929.40625 1088.121094 924.304688 1088.78125 937.449219 1087.890625 C 931.015625 1079.410156 909.082031 1051.671875 902.242188 1045.121094 L 882.496094 1051.601562 L 866.574219 1031.949219 C 852.820312 1035.601562 852.671875 1040.671875 840.667969 1046.101562 C 831.976562 1041.980469 831.257812 1039.230469 821.71875 1038.359375 C 794.722656 1062.058594 821.382812 1057.371094 781.851562 1054.78125 C 773.878906 1090.730469 774.5625 1073.320312 755.105469 1084.230469 L 761.128906 1204.269531 C 762.398438 1223.878906 762.679688 1243.371094 763.898438 1262.980469 C 765.035156 1281.320312 768.925781 1299.429688 770.109375 1316.519531 "/>
<path fill-rule="evenodd" fill="rgb(89.0625%, 83.006287%, 33.006287%)" fill-opacity="1" d="M 1541.199219 1457.359375 C 1526.839844 1428.050781 1510.789062 1414.789062 1520.261719 1375.03125 C 1527.308594 1345.421875 1540.550781 1328.121094 1563.199219 1312.058594 C 1619.269531 1272.320312 1669.789062 1296.949219 1699.871094 1348.25 C 1701.570312 1324.71875 1701.300781 1305.199219 1705.148438 1281.101562 C 1708.660156 1259.121094 1714.800781 1241.160156 1719.53125 1220.089844 C 1708.988281 1222.328125 1713.859375 1215.089844 1707.308594 1241.320312 C 1704.660156 1251.929688 1702.351562 1257.441406 1700.601562 1268.929688 C 1698.300781 1284.070312 1694.429688 1310.289062 1689.808594 1318.378906 C 1682.378906 1311.488281 1680.800781 1313.621094 1680.078125 1301.011719 C 1662.78125 1299.53125 1656.558594 1289.988281 1639.140625 1291.199219 L 1637.609375 1283.890625 C 1622.378906 1284 1621.078125 1288.460938 1604.070312 1289 C 1569.328125 1290.109375 1549.429688 1313.539062 1529.019531 1336.710938 C 1515.691406 1351.851562 1511.820312 1381.980469 1513.128906 1402.539062 C 1514.429688 1422.898438 1519.300781 1452.578125 1541.199219 1457.359375 "/>
<path fill-rule="evenodd" fill="rgb(89.0625%, 83.006287%, 33.006287%)" fill-opacity="1" d="M 1596.488281 1124.398438 C 1669.980469 1110.089844 1693.378906 1237.210938 1614.53125 1249.710938 C 1534.691406 1262.359375 1512.949219 1140.671875 1596.488281 1124.398438 Z M 1575.351562 1123.269531 C 1566.980469 1129.398438 1559.898438 1124.140625 1543.78125 1153.851562 C 1512.761719 1211 1568.21875 1278.539062 1633.109375 1251.328125 C 1650.289062 1244.121094 1660.488281 1234.460938 1665.519531 1216.191406 C 1671.320312 1195.128906 1672.738281 1177.03125 1665.160156 1156.980469 C 1647.75 1110.890625 1591.300781 1111.601562 1575.351562 1123.269531 "/>
<path fill-rule="evenodd" fill="rgb(89.0625%, 83.006287%, 33.006287%)" fill-opacity="1" d="M 1178.921875 985.75 C 1267.738281 955.960938 1291.371094 1084.140625 1220.179688 1103.339844 C 1127.039062 1128.46875 1110.351562 1008.75 1178.921875 985.75 Z M 1174.75 978.171875 C 1163.289062 982.53125 1146.289062 999.449219 1138.660156 1010.328125 C 1116.171875 1042.410156 1131.339844 1132.03125 1223.410156 1109.78125 C 1260.550781 1100.800781 1299.890625 1027.140625 1237.578125 983.828125 C 1223.761719 974.21875 1189.179688 972.679688 1174.75 978.171875 "/>
<path fill-rule="evenodd" fill="rgb(98.046875%, 98.046875%, 98.046875%)" fill-opacity="1" d="M 1594.691406 1130.410156 C 1556.808594 1138.859375 1573.078125 1194.5 1608.058594 1184.480469 C 1637.53125 1176.03125 1632.5 1121.960938 1594.691406 1130.410156 "/>
<path fill-rule="evenodd" fill="rgb(71.09375%, 22.996521%, 17.993164%)" fill-opacity="1" d="M 1015.320312 1177.199219 C 1014.910156 1152.730469 1001.300781 1159.71875 999.714844 1142.828125 C 998.53125 1130.230469 1010.769531 1119.679688 1021.179688 1113.609375 C 1036.828125 1104.488281 1048.75 1108.53125 1064.929688 1111.730469 C 1093.269531 1117.328125 1094.929688 1123.859375 1106.75 1142.929688 C 1113.441406 1153.71875 1127.148438 1165.5 1120.839844 1199.789062 C 1114.449219 1234.519531 1088.128906 1250.550781 1085.378906 1265.921875 C 1124.558594 1251.550781 1156.5 1155.601562 1089.058594 1112.988281 C 1063.328125 1096.730469 1040.511719 1107.179688 1027.761719 1100.730469 L 1021.820312 1103.121094 C 1030.078125 1107.261719 1022.488281 1105.878906 1017.269531 1108.960938 C 1011.78125 1112.179688 1010.519531 1111.988281 1004.878906 1116.71875 C 997.664062 1122.78125 992.835938 1129.058594 988.296875 1137.261719 C 991.742188 1150.390625 1004.679688 1169.679688 1015.320312 1177.199219 "/>
<path fill-rule="evenodd" fill="rgb(89.0625%, 83.006287%, 33.006287%)" fill-opacity="1" d="M 765.4375 2316.921875 L 750.066406 2315.1875 C 817.378906 2280.355469 775.335938 2283.121094 766.949219 2278.773438 C 780.714844 2270.023438 779.109375 2272.492188 772.339844 2266.480469 C 758.757812 2274.699219 745.0625 2286.28125 732.066406 2295.378906 C 720.132812 2303.734375 703.363281 2315.785156 707.257812 2331.992188 C 724.292969 2327.4375 734.742188 2300.664062 782.40625 2287.976562 C 762.703125 2300.066406 738.6875 2312.410156 722.921875 2328.117188 C 705.160156 2345.816406 715.984375 2344.667969 717.121094 2345.480469 C 723.460938 2348.492188 729.148438 2337.789062 738.222656 2332.203125 C 747.28125 2326.625 758.445312 2323.082031 765.4375 2316.921875 "/>
<path fill-rule="evenodd" fill="rgb(97.068787%, 98.046875%, 96.09375%)" fill-opacity="1" d="M 1213.761719 995.808594 C 1184.21875 1004.339844 1194.171875 1055.160156 1231.300781 1044.859375 C 1260.941406 1036.640625 1251.679688 984.859375 1213.761719 995.808594 "/>
<path fill-rule="evenodd" fill="rgb(89.0625%, 83.006287%, 33.006287%)" fill-opacity="1" d="M 1614.230469 2327.3125 C 1621.019531 2340.492188 1622.628906 2336.089844 1631.378906 2345.613281 C 1626.050781 2365.414062 1639.121094 2339.613281 1619.890625 2359.933594 C 1619.570312 2360.269531 1619.011719 2360.96875 1618.628906 2361.300781 C 1618.210938 2361.660156 1617.480469 2362.203125 1617 2362.550781 C 1611.449219 2366.554688 1612.671875 2364.335938 1611.230469 2365.378906 C 1610.5 2365.910156 1608.640625 2361.148438 1604.730469 2377.640625 L 1615.511719 2377.261719 L 1609.210938 2369.039062 C 1642.089844 2383.699219 1647.550781 2391.535156 1661.910156 2412.882812 C 1698.878906 2409.195312 1636.21875 2367.675781 1630.148438 2356.484375 C 1657.101562 2367.441406 1661.699219 2385.199219 1678.480469 2397.59375 C 1685.199219 2380.792969 1631.589844 2334.773438 1618.699219 2326.648438 L 1614.230469 2327.3125 "/>
<path fill-rule="evenodd" fill="rgb(89.0625%, 83.006287%, 33.006287%)" fill-opacity="1" d="M 1798.75 1824.96875 L 1807.621094 1830.519531 C 1859.238281 1828.691406 1842.460938 1839.5625 1867.910156 1839.890625 L 1877.191406 1815.601562 C 1900.328125 1809.359375 1897.371094 1809.941406 1899.808594 1785.289062 L 1918.980469 1773.5 L 1915.339844 1751.089844 L 1927.28125 1742.28125 L 1915.121094 1715.808594 C 1903.730469 1716.058594 1909.390625 1718.878906 1901.308594 1715.058594 C 1912.039062 1704.011719 1913.738281 1712.179688 1916.75 1693.929688 C 1908.578125 1688.789062 1900.140625 1687.679688 1894.308594 1683.761719 C 1886.570312 1678.550781 1888.691406 1674.191406 1878.601562 1666.851562 C 1875.53125 1687.351562 1893.121094 1688.761719 1905.359375 1698.308594 C 1902.328125 1710.21875 1898.019531 1708.988281 1894.761719 1717.449219 C 1905.769531 1729.53125 1908.898438 1724.039062 1917.539062 1731.609375 C 1917.308594 1742.890625 1912.988281 1743.949219 1906.679688 1751.730469 C 1909.871094 1762.109375 1911.761719 1758.429688 1910.738281 1770.890625 C 1886.351562 1782.609375 1897.261719 1780.058594 1890.980469 1804.429688 L 1871.46875 1809.570312 L 1862.980469 1832.03125 C 1835.011719 1828.378906 1850.210938 1820.449219 1798.75 1824.96875 "/>
<path fill-rule="evenodd" fill="rgb(73.046875%, 58.006287%, 25%)" fill-opacity="1" d="M 1605.570312 2315.671875 L 1586.589844 2298.589844 L 1544.578125 2274.019531 L 1521.128906 2280.425781 C 1531.96875 2268.953125 1538.800781 2273.691406 1547.289062 2268.179688 C 1554.308594 2263.621094 1546.609375 2263.769531 1559.761719 2262.894531 C 1577.101562 2260.089844 1609.269531 2225.753906 1613.078125 2207.894531 C 1595.640625 2210.058594 1597.730469 2215.546875 1585.761719 2227.867188 C 1579.761719 2234.050781 1570.269531 2241.367188 1563.738281 2247.027344 C 1534.039062 2272.785156 1515.421875 2260.710938 1517.421875 2284.207031 C 1544.691406 2296.035156 1526.878906 2273.730469 1560.328125 2291.539062 C 1584.210938 2304.261719 1588.058594 2319.242188 1605.570312 2315.671875 "/>
<path fill-rule="evenodd" fill="rgb(73.046875%, 58.984375%, 30.004883%)" fill-opacity="1" d="M 783.648438 2260.898438 L 799.265625 2258.082031 C 805.546875 2253.265625 828.171875 2238.941406 836.519531 2235.605469 C 850.644531 2229.960938 865.617188 2256.238281 879.363281 2233.851562 C 867.84375 2216.714844 849.765625 2229.847656 816.335938 2192.199219 C 809.621094 2184.640625 799.277344 2177.851562 794.460938 2166.121094 C 784.632812 2142.183594 775.15625 2145.996094 780.664062 2132.246094 L 770.648438 2126.574219 C 793.65625 2214.800781 856.390625 2222.9375 870.214844 2234.835938 C 839.816406 2233.085938 852.777344 2219.859375 823.1875 2235.730469 C 810.429688 2242.574219 792.253906 2250.621094 783.648438 2260.898438 "/>
<path fill-rule="evenodd" fill="rgb(89.0625%, 83.006287%, 33.006287%)" fill-opacity="1" d="M 1021.820312 1103.121094 L 1027.761719 1100.730469 C 1051.210938 1097.75 1064.351562 1091.980469 1087.871094 1105.648438 C 1108.410156 1117.601562 1113.148438 1133.210938 1127.109375 1145.539062 C 1128.898438 1132.019531 1126.550781 1129.28125 1116.628906 1121.640625 C 1106.089844 1113.519531 1110.121094 1112.699219 1098.03125 1103.800781 C 1078.210938 1089.199219 1063.511719 1090.058594 1039.050781 1090.191406 C 1041.371094 1070.171875 1057.511719 1059.5 1054.421875 1039.511719 C 1046.570312 1046.828125 1042.28125 1060.640625 1037.800781 1071.570312 C 1030.648438 1089 1025.96875 1089.460938 1017.96875 1102.140625 L 1021.820312 1103.121094 "/>
<path fill-rule="evenodd" fill="rgb(89.0625%, 83.006287%, 33.006287%)" fill-opacity="1" d="M 1401.648438 1144.800781 C 1390.878906 1147.921875 1393.398438 1147.988281 1382.421875 1145.660156 L 1379.53125 1131.96875 C 1391.738281 1132.761719 1396.910156 1132.878906 1401.648438 1144.800781 Z M 1371.488281 1131.679688 C 1371.308594 1145.398438 1371.230469 1143.609375 1380.128906 1152.671875 C 1393.339844 1153.910156 1420.101562 1155.011719 1405.730469 1134.121094 C 1395.910156 1119.851562 1382.949219 1122.730469 1371.488281 1131.679688 "/>
<path fill-rule="evenodd" fill="rgb(30.004883%, 19.993591%, 9.008789%)" fill-opacity="1" d="M 1586.589844 2298.589844 C 1579.53125 2287.71875 1561.910156 2279.734375 1551.621094 2269.964844 L 1559.761719 2262.894531 C 1546.609375 2263.769531 1554.308594 2263.621094 1547.289062 2268.179688 C 1538.800781 2273.691406 1531.96875 2268.953125 1521.128906 2280.425781 L 1544.578125 2274.019531 L 1586.589844 2298.589844 "/>
<path fill-rule="evenodd" fill="rgb(7.006836%, 4.998779%, 1.997375%)" fill-opacity="1" d="M 1382.421875 1145.660156 C 1393.398438 1147.988281 1390.878906 1147.921875 1401.648438 1144.800781 C 1396.910156 1132.878906 1391.738281 1132.761719 1379.53125 1131.96875 L 1382.421875 1145.660156 "/>
<path fill-rule="evenodd" fill="rgb(83.006287%, 19.993591%, 11.009216%)" fill-opacity="1" d="M 1695.949219 1382.898438 C 1706.359375 1337.441406 1661.199219 1295.898438 1612.011719 1299.660156 C 1499.988281 1308.238281 1489.128906 1481.839844 1611.738281 1472.609375 C 1654.078125 1469.421875 1687.019531 1421.890625 1695.949219 1382.898438 "/>
</svg>
